<svg width="24" height="24" viewBox="0 0 24 24" fill="none" xmlns="http://www.w3.org/2000/svg">
<g clip-path="url(#clip0_301_1567)">
<path d="M20.5873 14.8875L23.3248 17.7375L11.2873 23.775C11.2873 23.775 9.71227 24.5624 8.96227 23.3249C5.96227 18.45 20.5873 14.8875 20.5873 14.8875" fill="#256382"/>
<path d="M10.9502 20.2126C10.9502 20.2126 8.66265 21.075 9.07515 22.6875C9.52515 24.375 11.3627 23.3625 11.3627 23.3625L22.8002 17.7375C22.8002 17.7375 22.1627 15.9375 23.3252 14.7375L10.9502 20.2126" fill="#D9E3E8"/>
<path d="M12.9 3.33752L23.85 14.625L10.9125 19.9875L2.625 6.26252L12.9 3.33752Z" fill="#42ADE2"/>
<path d="M22.7633 15.975L15.1133 19.275L22.6133 15.6375L22.7633 15.975Z" fill="#94989B"/>
<path d="M22.6492 16.9499L14.5117 20.5124L22.4992 16.6124L22.6492 16.9499Z" fill="#94989B"/>
<path d="M22.7254 17.5124L12.3379 22.2749L22.5754 17.1749L22.7254 17.5124Z" fill="#94989B"/>
<path d="M8.925 23.2875C7.65 20.475 10.9125 19.9875 10.9125 19.9875L2.625 6.2625C2.625 6.2625 0.75 6.225 0.75 8.2875C0.75 9.15 1.125 9.7875 1.125 9.7875L8.925 23.2875Z" fill="#428BC1"/>
<path d="M3.26289 12.075L0.525391 14.925L12.5629 20.9625C12.5629 20.9625 14.1379 21.7499 14.8879 20.5124C17.8879 15.6375 3.26289 12.075 3.26289 12.075" fill="#547725"/>
<path d="M12.8629 17.4001C12.8629 17.4001 15.1504 18.2625 14.7379 19.875C14.2879 21.5625 12.4879 20.55 12.4879 20.55L1.05039 14.925C1.05039 14.925 1.68789 13.125 0.525391 11.925L12.8629 17.4001Z" fill="#D9E3E8"/>
<path d="M10.95 0.525024L0 11.8125L12.9375 17.175L21.225 3.45002L10.95 0.525024Z" fill="#83BF4F"/>
<path d="M1.20078 12.825L8.70078 16.4625L1.05078 13.1625L1.20078 12.825Z" fill="#94989B"/>
<path d="M1.35156 13.7999L9.30156 17.6999L1.16406 14.1374L1.35156 13.7999Z" fill="#94989B"/>
<path d="M1.27539 14.3624L11.4754 19.4624L1.08789 14.6999L1.27539 14.3624Z" fill="#94989B"/>
<path d="M14.925 20.475C16.2 17.6625 12.9375 17.175 12.9375 17.175L21.225 3.45C21.225 3.45 23.1 3.4125 23.1 5.475C23.1 6.3375 22.725 6.975 22.725 6.975L14.925 20.475Z" fill="#699635"/>
<path d="M21.2629 9.75L23.5504 12.15L13.3879 17.2125C13.3879 17.2125 12.0379 17.85 11.4004 16.8375C8.92541 12.75 21.2629 9.75 21.2629 9.75Z" fill="#962C2C"/>
<path d="M13.1249 14.25C13.1249 14.25 11.1749 14.9625 11.5499 16.35C11.9249 17.775 13.4624 16.9125 13.4624 16.9125L23.0999 12.15C23.0999 12.15 22.5749 10.65 23.5499 9.63745L13.1249 14.25Z" fill="#D9E3E8"/>
<path d="M14.7742 0L23.9992 9.525L13.0867 14.0625L6.07422 2.475L14.7742 0Z" fill="#ED4C5C"/>
<path d="M15.0375 2.17499L16.8375 4.16249L10.2 6.67499L8.625 4.12499L15.0375 2.17499Z" fill="white"/>
<path d="M23.0984 10.6875L16.6484 13.425L22.9484 10.35L23.0984 10.6875Z" fill="#94989B"/>
<path d="M23.025 11.5124L16.125 14.4749L22.875 11.1749L23.025 11.5124Z" fill="#94989B"/>
<path d="M23.0992 11.9625L14.3242 15.975L22.9117 11.625L23.0992 11.9625Z" fill="#94989B"/>
<path d="M11.4379 16.8375C10.3879 14.475 13.1254 14.0625 13.1254 14.0625L6.07539 2.47504C6.07539 2.47504 4.46289 2.43754 4.46289 4.16254C4.46289 4.87504 4.76289 5.43754 4.76289 5.43754L11.4379 16.8375Z" fill="#C94747"/>
</g>
<defs>
<clipPath id="clip0_301_1567">
<rect width="24" height="24" fill="white"/>
</clipPath>
</defs>
</svg>
