<svg width="24" height="24" viewBox="0 0 24 24" fill="none" xmlns="http://www.w3.org/2000/svg">
<path d="M23.8666 8.48419C23.8666 6.16973 21.9903 4.29347 19.6759 4.29347C18.2293 4.29347 16.9539 5.02645 16.2008 6.14123C16.1131 3.20067 13.7021 0.84375 10.7403 0.84375C7.72312 0.84375 5.27714 3.28969 5.27714 6.30694C5.27714 8.56566 6.64795 10.5041 8.60297 11.3361C8.59945 11.3551 8.59673 11.3743 8.59364 11.3933H6.77569C6.21651 11.3933 5.76319 11.8467 5.76319 12.4058V15.0728L1.64841 13.071C0.9555 12.734 0.0761719 13.1409 0.0761719 13.7986V20.3415C0.0761719 20.9993 0.955547 21.4062 1.64841 21.0691L5.76319 19.0673V21.7343C5.76319 22.2935 6.21651 22.7468 6.77569 22.7468H20.7161C21.2753 22.7468 21.7286 22.2935 21.7286 21.7343V12.4058C21.7286 12.3195 21.7167 12.2362 21.6963 12.1562C22.99 11.4428 23.8666 10.066 23.8666 8.48419V8.48419Z" fill="#2B3B47"/>
<path d="M4.50527 14.4613L2.94531 13.7024V20.4377L4.50527 19.6788V14.4613Z" fill="#597B91"/>
<path d="M14.9303 6.30693C14.9303 8.62138 13.054 10.4976 10.7395 10.4976C8.42509 10.4976 6.54883 8.62138 6.54883 6.30693C6.54883 3.99248 8.42509 2.11621 10.7395 2.11621C13.054 2.11621 14.9303 3.99243 14.9303 6.30693ZM19.6751 5.26954C17.8997 5.26954 16.4605 6.70879 16.4605 8.48418C16.4605 10.2596 17.8997 11.6988 19.6751 11.6988C21.4505 11.6988 22.8897 10.2596 22.8897 8.48418C22.8897 6.70879 21.4505 5.26954 19.6751 5.26954V5.26954Z" fill="#597B91"/>
<path d="M12.917 6.30689C12.917 7.50937 11.9422 8.48414 10.7397 8.48414C9.53731 8.48414 8.5625 7.50932 8.5625 6.30689C8.5625 5.10445 9.53731 4.12964 10.7397 4.12964C11.9422 4.12964 12.917 5.1044 12.917 6.30689ZM19.6752 6.30689C18.4728 6.30689 17.498 7.2817 17.498 8.48414C17.498 9.68657 18.4728 10.6614 19.6752 10.6614C20.8777 10.6614 21.8525 9.68657 21.8525 8.48414C21.8525 7.2817 20.8777 6.30689 19.6752 6.30689Z" fill="#ADB8BC"/>
<path d="M17.8154 21.2646H9.71006C9.41498 21.2646 9.17578 21.0254 9.17578 20.7303V18.6225C9.17578 18.3275 9.41498 18.0883 9.71006 18.0883H17.8154C18.1105 18.0883 18.3497 18.3275 18.3497 18.6225V20.7303C18.3497 21.0254 18.1105 21.2646 17.8154 21.2646Z" fill="#ADB8BC"/>
<path d="M11.6195 20.7023C12.186 20.7023 12.6453 20.243 12.6453 19.6765C12.6453 19.11 12.186 18.6508 11.6195 18.6508C11.053 18.6508 10.5938 19.11 10.5938 19.6765C10.5938 20.243 11.053 20.7023 11.6195 20.7023Z" fill="#FF473E"/>
<path d="M15.4489 20.2649H14.4132C14.1202 20.2649 13.8828 20.0274 13.8828 19.7345V19.6186C13.8828 19.3257 14.1203 19.0883 14.4132 19.0883H15.4489C15.7418 19.0883 15.9792 19.3257 15.9792 19.6186V19.7345C15.9792 20.0274 15.7418 20.2649 15.4489 20.2649V20.2649Z" fill="#2B3B47"/>
</svg>
