<svg width="24" height="24" viewBox="0 0 24 24" fill="none" xmlns="http://www.w3.org/2000/svg">
<g clip-path="url(#clip0_301_1552)">
<path d="M21.3333 3.33331H6V20.6666H21.3333C22.0406 20.6666 22.7189 20.3857 23.219 19.8856C23.719 19.3855 24 18.7072 24 18V5.99998C24 5.29274 23.719 4.61446 23.219 4.11436C22.7189 3.61426 22.0406 3.33331 21.3333 3.33331V3.33331ZM15 16.9813C13.6739 16.9813 12.4021 16.4545 11.4645 15.5168C10.5268 14.5792 10 13.3074 10 11.9813C10 9.50131 11.8073 7.44865 14.1753 7.05465C13.2798 7.46958 12.553 8.17794 12.115 9.06241C11.6771 9.94689 11.5544 10.9544 11.7673 11.9181C11.9802 12.8818 12.5159 13.7439 13.2856 14.3616C14.0554 14.9793 15.0131 15.3155 16 15.3146C16.8256 15.3143 17.6338 15.0779 18.3295 14.6334C19.0252 14.189 19.5793 13.5549 19.9267 12.806C19.5327 15.1746 17.48 16.9813 15 16.9813ZM18.4067 10.032L17.598 11.38L17.4593 9.81398L15.9273 9.46198L17.374 8.84598L17.236 7.27998L18.268 8.46598L19.7147 7.84998L18.9067 9.19865L19.9387 10.3846L18.4067 10.032V10.032Z" fill="#004600"/>
<path d="M2.66667 3.33331C1.95942 3.33331 1.28115 3.61426 0.781049 4.11436C0.280952 4.61446 0 5.29274 0 5.99998L0 18C0 18.7072 0.280952 19.3855 0.781049 19.8856C1.28115 20.3857 1.95942 20.6666 2.66667 20.6666H6V3.33331H2.66667Z" fill="#EEEEEE"/>
<path d="M19.7151 7.85003L18.2684 8.46603L17.2364 7.28003L17.3744 8.84603L15.9277 9.46203L17.4597 9.81403L17.5984 11.38L18.4071 10.032L19.9391 10.3847L18.9071 9.1987L19.7151 7.85003Z" fill="white"/>
<path d="M16 15.3147C15.0131 15.3156 14.0554 14.9793 13.2856 14.3617C12.5159 13.744 11.9802 12.8819 11.7673 11.9182C11.5544 10.9544 11.6771 9.94693 12.115 9.06246C12.553 8.17798 13.2798 7.46962 14.1753 7.05469C11.8073 7.44935 10 9.50202 10 11.9814C10 13.3074 10.5268 14.5792 11.4645 15.5169C12.4021 16.4546 13.6739 16.9814 15 16.9814C17.48 16.9814 19.5327 15.174 19.9267 12.806C19.5795 13.5551 19.0253 14.1892 18.3296 14.6337C17.6339 15.0782 16.8256 15.3145 16 15.3147V15.3147Z" fill="white"/>
</g>
<defs>
<clipPath id="clip0_301_1552">
<rect width="24" height="24" fill="white"/>
</clipPath>
</defs>
</svg>
