<svg width="139" height="38" viewBox="0 0 139 38" fill="none" xmlns="http://www.w3.org/2000/svg">
<path d="M12.1691 0.151999V11.624C12.1691 13.4 11.6651 14.768 10.6571 15.728C9.66509 16.688 8.32109 17.168 6.62509 17.168C4.84909 17.168 3.42509 16.664 2.35309 15.656C1.28109 14.648 0.745094 13.216 0.745094 11.36H4.82509C4.82509 12.064 4.96909 12.6 5.25709 12.968C5.54509 13.32 5.96109 13.496 6.50509 13.496C7.00109 13.496 7.38509 13.336 7.65709 13.016C7.92909 12.696 8.06509 12.232 8.06509 11.624V0.151999H12.1691ZM25.9721 14.024H19.6841L18.6761 17H14.3801L20.4761 0.151999H25.2281L31.3241 17H26.9801L25.9721 14.024ZM24.9161 10.856L22.8281 4.688L20.7641 10.856H24.9161ZM47.7714 0.151999V17H43.6674V10.064H37.2834V17H33.1794V0.151999H37.2834V6.752H43.6674V0.151999H47.7714ZM61.2221 14.024H54.9341L53.9261 17H49.6301L55.7261 0.151999H60.4781L66.5741 17H62.2301L61.2221 14.024ZM60.1661 10.856L58.0781 4.688L56.0141 10.856H60.1661ZM83.5014 17H79.3974L72.5334 6.608V17H68.4294V0.151999H72.5334L79.3974 10.592V0.151999H83.5014V17ZM90.8443 13.64H98.0923V17H86.1883V13.88L93.3883 3.512H86.1883V0.151999H98.0923V3.272L90.8443 13.64ZM111.261 14.024H104.973L103.965 17H99.6692L105.765 0.151999H110.517L116.613 17H112.269L111.261 14.024ZM110.205 10.856L108.117 4.688L106.053 10.856H110.205ZM122.572 0.151999V17H118.468V0.151999H122.572ZM135.747 8.36C136.723 8.568 137.507 9.056 138.099 9.824C138.691 10.576 138.987 11.44 138.987 12.416C138.987 13.824 138.491 14.944 137.499 15.776C136.523 16.592 135.155 17 133.395 17H125.547V0.151999H133.131C134.843 0.151999 136.179 0.543999 137.139 1.328C138.115 2.112 138.603 3.176 138.603 4.52C138.603 5.512 138.339 6.336 137.811 6.992C137.299 7.648 136.611 8.104 135.747 8.36ZM129.651 6.968H132.339C133.011 6.968 133.523 6.824 133.875 6.536C134.243 6.232 134.427 5.792 134.427 5.216C134.427 4.64 134.243 4.2 133.875 3.896C133.523 3.592 133.011 3.44 132.339 3.44H129.651V6.968ZM132.675 13.688C133.363 13.688 133.891 13.536 134.259 13.232C134.643 12.912 134.835 12.456 134.835 11.864C134.835 11.272 134.635 10.808 134.235 10.472C133.851 10.136 133.315 9.968 132.627 9.968H129.651V13.688H132.675Z" fill="#404040"/>
<path d="M18.944 24.27V25.572H14.814V28.442H18.034V29.744H14.814V34H13.218V24.27H18.944ZM19.891 30.108C19.891 29.3333 20.0497 28.6473 20.367 28.05C20.6937 27.4527 21.1324 26.9907 21.683 26.664C22.243 26.328 22.859 26.16 23.531 26.16C24.1377 26.16 24.665 26.2813 25.113 26.524C25.5704 26.7573 25.9344 27.0513 26.205 27.406V26.286H27.815V34H26.205V32.852C25.9344 33.216 25.5657 33.5193 25.099 33.762C24.6324 34.0047 24.1004 34.126 23.503 34.126C22.8404 34.126 22.2337 33.958 21.683 33.622C21.1324 33.2767 20.6937 32.8007 20.367 32.194C20.0497 31.578 19.891 30.8827 19.891 30.108ZM26.205 30.136C26.205 29.604 26.093 29.142 25.869 28.75C25.6544 28.358 25.3697 28.0593 25.015 27.854C24.6604 27.6487 24.2777 27.546 23.867 27.546C23.4564 27.546 23.0737 27.6487 22.719 27.854C22.3644 28.05 22.075 28.344 21.851 28.736C21.6364 29.1187 21.529 29.576 21.529 30.108C21.529 30.64 21.6364 31.1067 21.851 31.508C22.075 31.9093 22.3644 32.2173 22.719 32.432C23.083 32.6373 23.4657 32.74 23.867 32.74C24.2777 32.74 24.6604 32.6373 25.015 32.432C25.3697 32.2267 25.6544 31.928 25.869 31.536C26.093 31.1347 26.205 30.668 26.205 30.136ZM39.2493 26.16C39.856 26.16 40.3973 26.286 40.8733 26.538C41.3587 26.79 41.7367 27.1633 42.0073 27.658C42.2873 28.1527 42.4273 28.75 42.4273 29.45V34H40.8453V29.688C40.8453 28.9973 40.6727 28.47 40.3273 28.106C39.982 27.7327 39.5107 27.546 38.9133 27.546C38.316 27.546 37.84 27.7327 37.4853 28.106C37.14 28.47 36.9673 28.9973 36.9673 29.688V34H35.3853V29.688C35.3853 28.9973 35.2127 28.47 34.8673 28.106C34.522 27.7327 34.0507 27.546 33.4533 27.546C32.856 27.546 32.38 27.7327 32.0253 28.106C31.68 28.47 31.5073 28.9973 31.5073 29.688V34H29.9113V26.286H31.5073V27.168C31.7687 26.8507 32.1 26.6033 32.5013 26.426C32.9027 26.2487 33.332 26.16 33.7893 26.16C34.4053 26.16 34.956 26.2907 35.4413 26.552C35.9267 26.8133 36.3 27.1913 36.5613 27.686C36.7947 27.2193 37.1587 26.8507 37.6533 26.58C38.148 26.3 38.68 26.16 39.2493 26.16ZM45.2702 25.264C44.9809 25.264 44.7382 25.166 44.5422 24.97C44.3462 24.774 44.2482 24.5313 44.2482 24.242C44.2482 23.9527 44.3462 23.71 44.5422 23.514C44.7382 23.318 44.9809 23.22 45.2702 23.22C45.5502 23.22 45.7882 23.318 45.9842 23.514C46.1802 23.71 46.2782 23.9527 46.2782 24.242C46.2782 24.5313 46.1802 24.774 45.9842 24.97C45.7882 25.166 45.5502 25.264 45.2702 25.264ZM46.0542 26.286V34H44.4582V26.286H46.0542ZM49.7456 23.64V34H48.1496V23.64H49.7456ZM58.785 26.286L54.053 37.626H52.401L53.969 33.874L50.931 26.286H52.709L54.879 32.166L57.133 26.286H58.785ZM71.1442 34L69.9402 32.796C69.4735 33.2627 68.9648 33.6127 68.4142 33.846C67.8635 34.07 67.2475 34.182 66.5662 34.182C65.8755 34.182 65.2642 34.0607 64.7322 33.818C64.2002 33.5753 63.7895 33.23 63.5002 32.782C63.2108 32.3247 63.0662 31.7973 63.0662 31.2C63.0662 30.528 63.2575 29.9307 63.6402 29.408C64.0228 28.876 64.5922 28.456 65.3482 28.148C65.0775 27.8213 64.8862 27.518 64.7742 27.238C64.6622 26.9487 64.6062 26.6313 64.6062 26.286C64.6062 25.8567 64.7135 25.474 64.9282 25.138C65.1522 24.802 65.4695 24.536 65.8802 24.34C66.2908 24.144 66.7668 24.046 67.3082 24.046C67.8588 24.046 68.3255 24.1533 68.7082 24.368C69.1002 24.5733 69.3895 24.858 69.5762 25.222C69.7722 25.586 69.8515 25.992 69.8142 26.44H68.2182C68.2275 26.0947 68.1435 25.8287 67.9662 25.642C67.7888 25.446 67.5462 25.348 67.2382 25.348C66.9302 25.348 66.6782 25.4413 66.4822 25.628C66.2955 25.8053 66.2022 26.0247 66.2022 26.286C66.2022 26.538 66.2722 26.79 66.4122 27.042C66.5615 27.2847 66.8182 27.602 67.1822 27.994L69.7582 30.556L70.7522 28.918H72.4742L71.2142 31.074L70.8642 31.648L73.2302 34H71.1442ZM66.5662 32.824C67.4435 32.824 68.2182 32.4647 68.8902 31.746L66.3142 29.156C65.2128 29.5947 64.6622 30.2573 64.6622 31.144C64.6622 31.62 64.8395 32.0213 65.1942 32.348C65.5488 32.6653 66.0062 32.824 66.5662 32.824ZM83.6393 24.27V25.572H79.5093V28.442H82.7293V29.744H79.5093V34H77.9133V24.27H83.6393ZM86.7144 27.406C86.9477 27.014 87.2557 26.7107 87.6384 26.496C88.0304 26.272 88.4924 26.16 89.0244 26.16V27.812H88.6184C87.993 27.812 87.517 27.9707 87.1904 28.288C86.873 28.6053 86.7144 29.156 86.7144 29.94V34H85.1184V26.286H86.7144V27.406ZM91.3034 25.264C91.0141 25.264 90.7714 25.166 90.5754 24.97C90.3794 24.774 90.2814 24.5313 90.2814 24.242C90.2814 23.9527 90.3794 23.71 90.5754 23.514C90.7714 23.318 91.0141 23.22 91.3034 23.22C91.5834 23.22 91.8214 23.318 92.0174 23.514C92.2134 23.71 92.3114 23.9527 92.3114 24.242C92.3114 24.5313 92.2134 24.774 92.0174 24.97C91.8214 25.166 91.5834 25.264 91.3034 25.264ZM92.0874 26.286V34H90.4914V26.286H92.0874ZM101.253 29.954C101.253 30.2433 101.234 30.5047 101.197 30.738H95.3028C95.3495 31.354 95.5781 31.8487 95.9888 32.222C96.3995 32.5953 96.9035 32.782 97.5008 32.782C98.3595 32.782 98.9661 32.4227 99.3208 31.704H101.043C100.809 32.4133 100.385 32.9967 99.7688 33.454C99.1621 33.902 98.4061 34.126 97.5008 34.126C96.7635 34.126 96.1008 33.9627 95.5128 33.636C94.9341 33.3 94.4768 32.8333 94.1408 32.236C93.8141 31.6293 93.6508 30.9293 93.6508 30.136C93.6508 29.3427 93.8095 28.6473 94.1268 28.05C94.4535 27.4433 94.9061 26.9767 95.4848 26.65C96.0728 26.3233 96.7448 26.16 97.5008 26.16C98.2288 26.16 98.8775 26.3187 99.4468 26.636C100.016 26.9533 100.459 27.4013 100.777 27.98C101.094 28.5493 101.253 29.2073 101.253 29.954ZM99.5868 29.45C99.5775 28.862 99.3675 28.3907 98.9568 28.036C98.5461 27.6813 98.0375 27.504 97.4308 27.504C96.8801 27.504 96.4088 27.6813 96.0168 28.036C95.6248 28.3813 95.3915 28.8527 95.3168 29.45H99.5868ZM106.715 26.16C107.322 26.16 107.863 26.286 108.339 26.538C108.825 26.79 109.203 27.1633 109.473 27.658C109.744 28.1527 109.879 28.75 109.879 29.45V34H108.297V29.688C108.297 28.9973 108.125 28.47 107.779 28.106C107.434 27.7327 106.963 27.546 106.365 27.546C105.768 27.546 105.292 27.7327 104.937 28.106C104.592 28.47 104.419 28.9973 104.419 29.688V34H102.823V26.286H104.419V27.168C104.681 26.8507 105.012 26.6033 105.413 26.426C105.824 26.2487 106.258 26.16 106.715 26.16ZM111.383 30.108C111.383 29.3333 111.542 28.6473 111.859 28.05C112.186 27.4527 112.625 26.9907 113.175 26.664C113.735 26.328 114.356 26.16 115.037 26.16C115.541 26.16 116.036 26.272 116.521 26.496C117.016 26.7107 117.408 27 117.697 27.364V23.64H119.307V34H117.697V32.838C117.436 33.2113 117.072 33.5193 116.605 33.762C116.148 34.0047 115.621 34.126 115.023 34.126C114.351 34.126 113.735 33.958 113.175 33.622C112.625 33.2767 112.186 32.8007 111.859 32.194C111.542 31.578 111.383 30.8827 111.383 30.108ZM117.697 30.136C117.697 29.604 117.585 29.142 117.361 28.75C117.147 28.358 116.862 28.0593 116.507 27.854C116.153 27.6487 115.77 27.546 115.359 27.546C114.949 27.546 114.566 27.6487 114.211 27.854C113.857 28.05 113.567 28.344 113.343 28.736C113.129 29.1187 113.021 29.576 113.021 30.108C113.021 30.64 113.129 31.1067 113.343 31.508C113.567 31.9093 113.857 32.2173 114.211 32.432C114.575 32.6373 114.958 32.74 115.359 32.74C115.77 32.74 116.153 32.6373 116.507 32.432C116.862 32.2267 117.147 31.928 117.361 31.536C117.585 31.1347 117.697 30.668 117.697 30.136ZM124.204 34.126C123.597 34.126 123.051 34.0187 122.566 33.804C122.09 33.58 121.712 33.2813 121.432 32.908C121.152 32.5253 121.002 32.1007 120.984 31.634H122.636C122.664 31.9607 122.818 32.236 123.098 32.46C123.387 32.6747 123.746 32.782 124.176 32.782C124.624 32.782 124.969 32.698 125.212 32.53C125.464 32.3527 125.59 32.1287 125.59 31.858C125.59 31.5687 125.45 31.354 125.17 31.214C124.899 31.074 124.465 30.92 123.868 30.752C123.289 30.5933 122.818 30.4393 122.454 30.29C122.09 30.1407 121.772 29.912 121.502 29.604C121.24 29.296 121.11 28.89 121.11 28.386C121.11 27.9753 121.231 27.602 121.474 27.266C121.716 26.9207 122.062 26.65 122.51 26.454C122.967 26.258 123.49 26.16 124.078 26.16C124.955 26.16 125.66 26.384 126.192 26.832C126.733 27.2707 127.022 27.8727 127.06 28.638H125.464C125.436 28.2927 125.296 28.0173 125.044 27.812C124.792 27.6067 124.451 27.504 124.022 27.504C123.602 27.504 123.28 27.5833 123.056 27.742C122.832 27.9007 122.72 28.1107 122.72 28.372C122.72 28.5773 122.794 28.75 122.944 28.89C123.093 29.03 123.275 29.142 123.49 29.226C123.704 29.3007 124.022 29.3987 124.442 29.52C125.002 29.6693 125.459 29.8233 125.814 29.982C126.178 30.1313 126.49 30.3553 126.752 30.654C127.013 30.9527 127.148 31.3493 127.158 31.844C127.158 32.2827 127.036 32.6747 126.794 33.02C126.551 33.3653 126.206 33.636 125.758 33.832C125.319 34.028 124.801 34.126 124.204 34.126Z" fill="#F51544"/>
</svg>
