<svg width="24" height="24" viewBox="0 0 24 24" fill="none" xmlns="http://www.w3.org/2000/svg">
<g clip-path="url(#clip0_301_1598)">
<path d="M22.7393 17.79V4.05267C22.7386 3.97883 22.7141 3.90718 22.6693 3.84845C22.6246 3.78971 22.562 3.74703 22.491 3.72679C18.6461 2.67079 12.6548 1.06842 8.80951 0.013166C8.76038 -0.00241599 8.70812 -0.0053967 8.65753 0.00449788C8.60694 0.0143925 8.55966 0.0368448 8.52001 0.069791C8.43864 0.123041 8.38089 0.210791 8.38089 0.339041C8.39251 4.77004 8.40451 9.19954 8.41539 13.6305C6.38814 12.1669 2.63964 12.5393 1.71114 15.0492C1.12726 16.6305 1.53526 18.4504 2.77839 19.5679C4.10139 20.7585 6.19201 20.7357 7.78089 20.2125C9.27376 19.7202 10.4831 18.4069 10.7123 16.8447C10.8274 16.0594 10.737 15.2089 10.737 14.4203V7.47492C13.2428 8.17167 17.892 9.41479 20.3989 10.1149C20.4023 12.4703 20.4116 14.9303 20.4165 17.0082C19.1198 16.0392 17.3119 15.9945 15.7894 16.5117C13.8075 17.1825 13.1951 19.1307 13.5926 21.0615C14.5301 25.6028 22.1018 24.4035 22.7141 20.2317C22.8293 19.4412 22.7393 18.5854 22.7393 17.7919" fill="#27AAE1"/>
<path d="M4.43926 14.8425C4.62864 14.6689 4.58439 14.3142 4.34026 14.0498C4.09726 13.785 3.74589 13.7112 3.55651 13.8855L2.75701 14.6235C2.56801 14.7975 2.61451 15.1527 2.85789 15.4178C3.10014 15.6822 3.45076 15.7553 3.63976 15.5809L4.43926 14.8425Z" fill="#E7E6E6"/>
<path d="M16.6115 18.3143C16.8009 18.1399 16.7563 17.7852 16.5122 17.5212C16.2688 17.2568 15.9178 17.1829 15.7288 17.3565L14.9289 18.0957C14.7399 18.2685 14.7864 18.6248 15.0294 18.8895C15.2724 19.1539 15.6227 19.2263 15.8117 19.053L16.6115 18.3143" fill="#E7E6E6"/>
</g>
<defs>
<clipPath id="clip0_301_1598">
<rect width="24" height="24" fill="white"/>
</clipPath>
</defs>
</svg>
